<svg xmlns="http://www.w3.org/2000/svg" width="84.973" height="84.973" viewBox="0 0 84.973 84.973">
    <defs>
        <style>
            .prefix__cls-1{fill:#707070;stroke:#333}
        </style>
    </defs>
    <g id="prefix__Grupo_2590" data-name="Grupo 2590" transform="translate(-144.5 -373.5)">
        <g id="prefix__Grupo_2335" data-name="Grupo 2335" transform="translate(145 374)">
            <g id="prefix__Grupo_2334" data-name="Grupo 2334">
                <path id="prefix__Caminho_3221" d="M74.133 6.56H70.2V0h-6.56v6.56h-43.3V0h-6.56v6.56H9.841A9.852 9.852 0 0 0 0 16.4v57.733a9.852 9.852 0 0 0 9.841 9.841h64.292a9.852 9.852 0 0 0 9.841-9.841V16.4a9.852 9.852 0 0 0-9.841-9.84zm3.28 67.572a3.284 3.284 0 0 1-3.28 3.28H9.841a3.284 3.284 0 0 1-3.28-3.28v-43.3h70.852zm0-49.859H6.56V16.4a3.284 3.284 0 0 1 3.28-3.28h3.936v6.56h6.56v-6.56h43.3v6.56H70.2v-6.56h3.936a3.284 3.284 0 0 1 3.28 3.28z" class="prefix__cls-1" data-name="Caminho 3221"/>
            </g>
        </g>
        <g id="prefix__Grupo_2337" data-name="Grupo 2337" transform="translate(157.162 411.75)">
            <g id="prefix__Grupo_2336" data-name="Grupo 2336">
                <path id="prefix__Retângulo_517" d="M0 0H7V7H0z" class="prefix__cls-1" data-name="Retângulo 517" transform="translate(-.427 -.015)"/>
            </g>
        </g>
        <g id="prefix__Grupo_2339" data-name="Grupo 2339" transform="translate(170.369 411.75)">
            <g id="prefix__Grupo_2338" data-name="Grupo 2338">
                <path id="prefix__Retângulo_518" d="M0 0H6V7H0z" class="prefix__cls-1" data-name="Retângulo 518" transform="translate(.366 -.015)"/>
            </g>
        </g>
        <g id="prefix__Grupo_2341" data-name="Grupo 2341" transform="translate(183.576 411.75)">
            <g id="prefix__Grupo_2340" data-name="Grupo 2340">
                <path id="prefix__Retângulo_519" d="M0 0H6V7H0z" class="prefix__cls-1" data-name="Retângulo 519" transform="translate(.159 -.015)"/>
            </g>
        </g>
        <g id="prefix__Grupo_2343" data-name="Grupo 2343" transform="translate(196.782 411.75)">
            <g id="prefix__Grupo_2342" data-name="Grupo 2342">
                <path id="prefix__Retângulo_520" d="M0 0H7V7H0z" class="prefix__cls-1" data-name="Retângulo 520" transform="translate(-.047 -.015)"/>
            </g>
        </g>
        <g id="prefix__Grupo_2345" data-name="Grupo 2345" transform="translate(209.989 411.75)">
            <g id="prefix__Grupo_2344" data-name="Grupo 2344">
                <path id="prefix__Retângulo_521" d="M0 0H7V7H0z" class="prefix__cls-1" data-name="Retângulo 521" transform="translate(-.254 -.015)"/>
            </g>
        </g>
        <g id="prefix__Grupo_2347" data-name="Grupo 2347" transform="translate(157.162 424.957)">
            <g id="prefix__Grupo_2346" data-name="Grupo 2346">
                <path id="prefix__Retângulo_522" d="M0 0H7V7H0z" class="prefix__cls-1" data-name="Retângulo 522" transform="translate(-.427 -.222)"/>
            </g>
        </g>
        <g id="prefix__Grupo_2349" data-name="Grupo 2349" transform="translate(170.369 424.957)">
            <g id="prefix__Grupo_2348" data-name="Grupo 2348">
                <path id="prefix__Retângulo_523" d="M0 0H6V7H0z" class="prefix__cls-1" data-name="Retângulo 523" transform="translate(.366 -.222)"/>
            </g>
        </g>
        <g id="prefix__Grupo_2351" data-name="Grupo 2351" transform="translate(183.576 424.957)">
            <g id="prefix__Grupo_2350" data-name="Grupo 2350">
                <path id="prefix__Retângulo_524" d="M0 0H6V7H0z" class="prefix__cls-1" data-name="Retângulo 524" transform="translate(.159 -.222)"/>
            </g>
        </g>
        <g id="prefix__Grupo_2353" data-name="Grupo 2353" transform="translate(196.782 424.957)">
            <g id="prefix__Grupo_2352" data-name="Grupo 2352">
                <path id="prefix__Retângulo_525" d="M0 0H7V7H0z" class="prefix__cls-1" data-name="Retângulo 525" transform="translate(-.047 -.222)"/>
            </g>
        </g>
        <g id="prefix__Grupo_2355" data-name="Grupo 2355" transform="translate(157.162 438.163)">
            <g id="prefix__Grupo_2354" data-name="Grupo 2354">
                <path id="prefix__Retângulo_526" d="M0 0H7V7H0z" class="prefix__cls-1" data-name="Retângulo 526" transform="translate(-.427 -.428)"/>
            </g>
        </g>
        <g id="prefix__Grupo_2357" data-name="Grupo 2357" transform="translate(170.369 438.163)">
            <g id="prefix__Grupo_2356" data-name="Grupo 2356">
                <path id="prefix__Retângulo_527" d="M0 0H6V7H0z" class="prefix__cls-1" data-name="Retângulo 527" transform="translate(.366 -.428)"/>
            </g>
        </g>
        <g id="prefix__Grupo_2359" data-name="Grupo 2359" transform="translate(183.576 438.163)">
            <g id="prefix__Grupo_2358" data-name="Grupo 2358">
                <path id="prefix__Retângulo_528" d="M0 0H6V7H0z" class="prefix__cls-1" data-name="Retângulo 528" transform="translate(.159 -.428)"/>
            </g>
        </g>
        <g id="prefix__Grupo_2361" data-name="Grupo 2361" transform="translate(196.782 438.163)">
            <g id="prefix__Grupo_2360" data-name="Grupo 2360">
                <path id="prefix__Retângulo_529" d="M0 0H7V7H0z" class="prefix__cls-1" data-name="Retângulo 529" transform="translate(-.047 -.428)"/>
            </g>
        </g>
        <g id="prefix__Grupo_2363" data-name="Grupo 2363" transform="translate(209.989 424.957)">
            <g id="prefix__Grupo_2362" data-name="Grupo 2362">
                <path id="prefix__Retângulo_530" d="M0 0H7V7H0z" class="prefix__cls-1" data-name="Retângulo 530" transform="translate(-.254 -.222)"/>
            </g>
        </g>
    </g>
</svg>
